<svg width="540" height="324" viewBox="0 0 540 324" fill="none" xmlns="http://www.w3.org/2000/svg">
<g clip-path="url(#clip0_6174_3569)">
<path d="M180.387 172.611H187.326V191.7H180.387V172.611Z" fill="#231F20"/>
<path d="M210.6 172.611H217.269L223.506 183.222H223.708C223.381 181.616 223.187 179.986 223.128 178.349V172.611H229.77V191.7H223.128L217.012 181.656H216.823C217.073 182.92 217.213 184.202 217.242 185.49V191.7H210.6V172.611Z" fill="#231F20"/>
<path d="M250.479 184.95L250.83 185.22C252.041 186.268 253.565 186.885 255.164 186.975C255.852 186.975 256.946 186.692 256.946 185.841C256.946 184.991 256.028 184.896 255.393 184.774L254.043 184.518C251.343 184.032 249.048 182.439 249.048 179.442C249.048 174.906 253.179 172.368 257.337 172.368C259.475 172.343 261.576 172.924 263.399 174.042L261.522 178.943C260.354 178.052 258.94 177.542 257.472 177.484C256.865 177.484 255.987 177.714 255.987 178.51C255.987 179.307 256.838 179.32 257.337 179.442L258.903 179.793C261.846 180.454 263.979 182.034 263.979 185.274C263.979 189.837 259.821 192.091 255.69 192.091C253.161 192.055 250.672 191.46 248.4 190.35L250.479 184.95Z" fill="#231F20"/>
<path d="M285.511 172.611H300.118V178.835L296.284 178.659V191.7H289.345V178.619L285.511 178.794V172.611Z" fill="#231F20"/>
<path d="M324.391 172.611H331.33V191.7H324.391V172.611Z" fill="#231F20"/>
<path d="M356.022 172.611H370.629V178.835L366.795 178.659V191.7H359.856V178.619L356.022 178.794V172.611Z" fill="#231F20"/>
<path d="M409.441 172.611V183.924C409.441 189.513 405.931 192.024 400.585 192.024C395.239 192.024 391.729 189.5 391.729 183.924V172.611H398.682V183.276C398.682 184.761 398.682 186.084 400.585 186.084C402.489 186.084 402.489 184.734 402.489 183.276V172.611H409.441Z" fill="#231F20"/>
<path d="M428.017 172.611H442.624V178.835L438.79 178.659V191.7H431.851V178.619L428.017 178.794V172.611Z" fill="#231F20"/>
<path d="M465.224 172.611H478.089V177.849H472.23V179.672H477.63V184.64H472.23V186.516H478.292V191.7H465.224V172.611Z" fill="#231F20"/>
<path d="M187.407 91.8V126.09C187.407 143.019 176.796 150.701 160.569 150.701C144.342 150.701 133.731 143.019 133.731 126.09V91.8H154.804V124.052C154.804 128.588 154.953 132.597 160.569 132.597C166.185 132.597 166.333 128.547 166.333 124.052V91.8H187.407Z" fill="#1696D2"/>
<path d="M209.371 91.8H234.819C247.887 91.8 258.97 97.335 258.97 111.942C258.97 120.717 255.582 124.403 247.738 127.021V127.481C249.105 128.429 250.3 129.602 251.275 130.95L263.884 149.85H239.584L230.364 131.234H229.972V149.85H209.371V91.8ZM229.972 117.45H231.43C234.9 117.45 238.356 116.91 238.356 112.604C238.356 108.297 235.21 107.609 231.606 107.609H229.986L229.972 117.45Z" fill="#1696D2"/>
<path d="M280.004 91.8H304.547C315.765 91.8 327.227 94.5 327.227 107.865C327.227 112.941 324.689 117.95 319.613 119.556V120.015C325.917 122.256 329.913 126.86 329.913 133.785C329.913 145.706 318.843 149.783 308.691 149.783H280.004V91.8ZM301.469 114.102C304.547 114.102 308.003 113.792 308.003 109.796C308.003 105.489 304.074 105.746 300.996 105.746H299.538V114.062L301.469 114.102ZM299.538 135.945H301.928C305.384 135.945 310.392 135.864 310.392 131.099C310.392 126.333 304.992 126.32 301.617 126.32H299.538V135.945Z" fill="#1696D2"/>
<path d="M364.27 149.742H341.969L362.111 91.8H385.411L406.107 149.85H383.805L381.875 142.614H365.972L364.27 149.742ZM378.189 128.75L375.732 118.517C375.111 116.06 374.733 113.522 374.382 111.051H373.613L369.779 128.75H378.189Z" fill="#1696D2"/>
<path d="M420.052 91.8H440.302L459.202 123.944H459.81C458.804 119.079 458.213 114.139 458.042 109.175V91.8H478.197V149.85H458.042L439.506 119.286H438.898C439.679 123.11 440.131 126.995 440.248 130.896V149.796H420.052V91.8Z" fill="#1696D2"/>
<path d="M294.26 287.739H288.266V293.733H294.26V287.739Z" fill="#9D9FA2"/>
<path d="M258.255 287.739H252.261V293.733H258.255V287.739Z" fill="#9D9FA2"/>
<path d="M150.255 287.739H144.261V293.733H150.255V287.739Z" fill="#9D9FA2"/>
<path d="M186.26 287.739H180.266V293.733H186.26V287.739Z" fill="#9D9FA2"/>
<path d="M222.264 287.739H216.27V293.733H222.264V287.739Z" fill="#9D9FA2"/>
<path d="M114.264 287.739H108.27V293.733H114.264V287.739Z" fill="#9D9FA2"/>
<path d="M78.2595 287.739H72.2655V293.733H78.2595V287.739Z" fill="#9D9FA2"/>
<path d="M42.255 287.739H36.261V293.733H42.255V287.739Z" fill="#9D9FA2"/>
<path d="M258.255 71.739H252.261V77.733H258.255V71.739Z" fill="#9D9FA2"/>
<path d="M294.26 71.739H288.266V77.733H294.26V71.739Z" fill="#9D9FA2"/>
<path d="M150.255 71.739H144.261V77.733H150.255V71.739Z" fill="#9D9FA2"/>
<path d="M186.26 71.739H180.266V77.733H186.26V71.739Z" fill="#9D9FA2"/>
<path d="M222.264 71.739H216.27V77.733H222.264V71.739Z" fill="#9D9FA2"/>
<path d="M114.264 71.739H108.27V77.733H114.264V71.739Z" fill="#9D9FA2"/>
<path d="M258.255 215.743H252.261V221.738H258.255V215.743Z" fill="#9D9FA2"/>
<path d="M294.26 215.743H288.266V221.738H294.26V215.743Z" fill="#9D9FA2"/>
<path d="M150.255 215.743H144.261V221.738H150.255V215.743Z" fill="#9D9FA2"/>
<path d="M186.26 215.743H180.266V221.738H186.26V215.743Z" fill="#9D9FA2"/>
<path d="M222.264 215.743H216.27V221.738H222.264V215.743Z" fill="#9D9FA2"/>
<path d="M114.264 215.743H108.27V221.738H114.264V215.743Z" fill="#9D9FA2"/>
<path d="M114.264 179.739H108.27V185.733H114.264V179.739Z" fill="#9D9FA2"/>
<path d="M114.264 143.734H108.27V149.729H114.264V143.734Z" fill="#9D9FA2"/>
<path d="M114.264 107.743H108.27V113.738H114.264V107.743Z" fill="#9D9FA2"/>
<path d="M222.264 71.739H216.27V77.733H222.264V71.739Z" fill="#9D9FA2"/>
<path d="M258.255 71.739H252.261V77.733H258.255V71.739Z" fill="#9D9FA2"/>
<path d="M294.26 71.739H288.266V77.733H294.26V71.739Z" fill="#9D9FA2"/>
<path d="M114.264 71.739H108.27V77.733H114.264V71.739Z" fill="#9D9FA2"/>
<path d="M150.255 71.739H144.261V77.733H150.255V71.739Z" fill="#9D9FA2"/>
<path d="M186.26 71.739H180.266V77.733H186.26V71.739Z" fill="#9D9FA2"/>
<path d="M78.2595 71.739H72.2655V77.733H78.2595V71.739Z" fill="#9D9FA2"/>
<path d="M78.2595 215.743H72.2655V221.738H78.2595V215.743Z" fill="#9D9FA2"/>
<path d="M78.2595 179.739H72.2655V185.733H78.2595V179.739Z" fill="#9D9FA2"/>
<path d="M78.2595 143.734H72.2655V149.729H78.2595V143.734Z" fill="#9D9FA2"/>
<path d="M78.2595 107.743H72.2655V113.738H78.2595V107.743Z" fill="#9D9FA2"/>
<path d="M186.26 71.739H180.266V77.733H186.26V71.739Z" fill="#9D9FA2"/>
<path d="M222.264 71.739H216.27V77.733H222.264V71.739Z" fill="#9D9FA2"/>
<path d="M258.255 71.739H252.261V77.733H258.255V71.739Z" fill="#9D9FA2"/>
<path d="M294.26 71.739H288.266V77.733H294.26V71.739Z" fill="#9D9FA2"/>
<path d="M78.2595 71.739H72.2655V77.733H78.2595V71.739Z" fill="#9D9FA2"/>
<path d="M114.264 71.739H108.27V77.733H114.264V71.739Z" fill="#9D9FA2"/>
<path d="M150.255 71.739H144.261V77.733H150.255V71.739Z" fill="#9D9FA2"/>
<path d="M258.255 251.734H252.261V257.729H258.255V251.734Z" fill="#9D9FA2"/>
<path d="M294.26 251.734H288.266V257.729H294.26V251.734Z" fill="#9D9FA2"/>
<path d="M150.255 251.734H144.261V257.729H150.255V251.734Z" fill="#9D9FA2"/>
<path d="M186.26 251.734H180.266V257.729H186.26V251.734Z" fill="#9D9FA2"/>
<path d="M222.264 251.734H216.27V257.729H222.264V251.734Z" fill="#9D9FA2"/>
<path d="M114.264 251.734H108.27V257.729H114.264V251.734Z" fill="#9D9FA2"/>
<path d="M78.2595 251.734H72.2655V257.729H78.2595V251.734Z" fill="#9D9FA2"/>
<path d="M42.255 71.739H36.261V77.733H42.255V71.739Z" fill="#9D9FA2"/>
<path d="M42.255 215.743H36.261V221.738H42.255V215.743Z" fill="#9D9FA2"/>
<path d="M42.255 251.734H36.261V257.729H42.255V251.734Z" fill="#9D9FA2"/>
<path d="M42.255 179.739H36.261V185.733H42.255V179.739Z" fill="#9D9FA2"/>
<path d="M42.255 143.734H36.261V149.729H42.255V143.734Z" fill="#9D9FA2"/>
<path d="M42.255 107.743H36.261V113.738H42.255V107.743Z" fill="#9D9FA2"/>
<path d="M150.255 179.739H144.261V185.733H150.255V179.739Z" fill="#9D9FA2"/>
<path d="M258.255 35.7345H252.261V41.7285H258.255V35.7345Z" fill="#9D9FA2"/>
<path d="M294.26 35.7345H288.266V41.7285H294.26V35.7345Z" fill="#9D9FA2"/>
<path d="M150.255 35.7345H144.261V41.7285H150.255V35.7345Z" fill="#9D9FA2"/>
<path d="M186.26 35.7345H180.266V41.7285H186.26V35.7345Z" fill="#9D9FA2"/>
<path d="M222.264 35.7345H216.27V41.7285H222.264V35.7345Z" fill="#9D9FA2"/>
<path d="M114.264 35.7345H108.27V41.7285H114.264V35.7345Z" fill="#9D9FA2"/>
<path d="M78.2595 35.7345H72.2655V41.7285H78.2595V35.7345Z" fill="#9D9FA2"/>
<path d="M42.255 35.7345H36.261V41.7285H42.255V35.7345Z" fill="#9D9FA2"/>
</g>
<defs>
<clipPath id="clip0_6174_3569">
<rect width="540" height="324" fill="white"/>
</clipPath>
</defs>
</svg>
